<mxfile host="app.diagrams.net" modified="2024-03-06T13:27:06.436Z" agent="Mozilla/5.0 (Windows NT 10.0; Win64; x64) AppleWebKit/537.36 (KHTML, like Gecko) Chrome/122.0.0.0 Safari/537.36" etag="l8o5qKLJH4BYa3JfvoXS" version="24.0.1" type="github">
  <diagram name="第 1 页" id="vJ1N73LC9CKn2U2WhWwq">
    <mxGraphModel dx="954" dy="670" grid="1" gridSize="10" guides="1" tooltips="1" connect="1" arrows="1" fold="1" page="1" pageScale="1" pageWidth="1169" pageHeight="827" math="0" shadow="0">
      <root>
        <mxCell id="0" />
        <mxCell id="1" parent="0" />
        <mxCell id="AeBjJcqwquBcXmoqHb0v-6" style="edgeStyle=orthogonalEdgeStyle;rounded=0;orthogonalLoop=1;jettySize=auto;html=1;exitX=0.5;exitY=1;exitDx=0;exitDy=0;" edge="1" parent="1" source="AeBjJcqwquBcXmoqHb0v-1" target="AeBjJcqwquBcXmoqHb0v-5">
          <mxGeometry relative="1" as="geometry" />
        </mxCell>
        <mxCell id="AeBjJcqwquBcXmoqHb0v-1" value="浏览器" style="ellipse;whiteSpace=wrap;html=1;aspect=fixed;" vertex="1" parent="1">
          <mxGeometry x="310" y="100" width="80" height="80" as="geometry" />
        </mxCell>
        <mxCell id="AeBjJcqwquBcXmoqHb0v-5" value="" style="rounded=1;whiteSpace=wrap;html=1;dashed=1;dashPattern=8 8;" vertex="1" parent="1">
          <mxGeometry x="180" y="221" width="340" height="205" as="geometry" />
        </mxCell>
        <mxCell id="AeBjJcqwquBcXmoqHb0v-7" value="Tomcat" style="rounded=0;whiteSpace=wrap;html=1;" vertex="1" parent="1">
          <mxGeometry x="215" y="250" width="70" height="40" as="geometry" />
        </mxCell>
        <mxCell id="AeBjJcqwquBcXmoqHb0v-8" value="资源文件" style="rounded=0;whiteSpace=wrap;html=1;" vertex="1" parent="1">
          <mxGeometry x="295" y="330" width="70" height="40" as="geometry" />
        </mxCell>
        <mxCell id="AeBjJcqwquBcXmoqHb0v-9" value="数据库" style="rounded=0;whiteSpace=wrap;html=1;" vertex="1" parent="1">
          <mxGeometry x="385" y="250" width="70" height="40" as="geometry" />
        </mxCell>
        <mxCell id="AeBjJcqwquBcXmoqHb0v-10" value="All in One 服务器" style="text;html=1;align=center;verticalAlign=middle;whiteSpace=wrap;rounded=0;" vertex="1" parent="1">
          <mxGeometry x="320" y="221" width="60" height="30" as="geometry" />
        </mxCell>
      </root>
    </mxGraphModel>
  </diagram>
</mxfile>
